<?xml version="1.0" encoding="iso-8859-1"?>
<!-- Generator: Adobe Illustrator 19.0.0, SVG Export Plug-In . SVG Version: 6.00 Build 0)  -->
<svg version="1.1" id="Capa_1" xmlns="http://www.w3.org/2000/svg" xmlns:xlink="http://www.w3.org/1999/xlink" x="0px" y="0px"
	 viewBox="0 0 487.622 487.622" style="enable-background:new 0 0 487.622 487.622;" xml:space="preserve">
<g>
	<g>
		<circle style="fill:#3C556B;" cx="243.811" cy="243.811" r="243.811"/>
		<path style="opacity:0.37;fill:#2D465C;enable-background:new    ;" d="M476.399,317.117L262.036,110.221l9.471,43.123
			l-75.696,9.467l-62.708,81l26.34,98.648l132.744,140.354C379.549,465.225,450.003,400.942,476.399,317.117z"/>
		<path style="fill:#FFFFFF;" d="M328.161,342.458c17.312-17.313,28.744-39.161,33.057-63.181c4.213-23.453,1.4-47.348-8.129-69.096
			l-26.674,11.688c15.02,34.276,7.623,73.529-18.846,99.996c-35.16,35.161-92.372,35.161-127.533,0
			c-35.162-35.16-35.162-92.372,0-127.533c17.797-17.798,41.485-27.023,65.701-26.449l-9.879,34.947l46.645-11.816l46.646-11.816
			l-33.557-34.488l-33.557-34.488l-8.195,28.994c-12.077-1.016-24.3-0.197-36.249,2.484c-22.018,4.938-42.124,16.018-58.147,32.041
			c-22.533,22.533-34.942,52.492-34.942,84.358c0,0.002,0-0.001,0,0.001c0,31.863,12.411,61.826,34.942,84.359
			c22.533,22.532,52.493,34.941,84.359,34.941C275.668,377.401,305.627,364.991,328.161,342.458z"/>
	</g>
</g>
<g>
</g>
<g>
</g>
<g>
</g>
<g>
</g>
<g>
</g>
<g>
</g>
<g>
</g>
<g>
</g>
<g>
</g>
<g>
</g>
<g>
</g>
<g>
</g>
<g>
</g>
<g>
</g>
<g>
</g>
</svg>
